<svg width="59" height="59" viewBox="0 0 59 59" fill="none" xmlns="http://www.w3.org/2000/svg">
    <path d="M46.0936 51.625H12.9043C12.4153 51.625 11.9463 51.4308 11.6006 51.085C11.2548 50.7392 11.0605 50.2703 11.0605 49.7813V9.21875C11.0605 8.72976 11.2548 8.26079 11.6006 7.91502C11.9463 7.56925 12.4153 7.375 12.9043 7.375H35.0311L47.9373 20.2812V49.7812C47.9373 50.0234 47.8897 50.2631 47.797 50.4868C47.7043 50.7105 47.5685 50.9138 47.3973 51.085C47.2261 51.2562 47.0229 51.392 46.7992 51.4847C46.5755 51.5773 46.3357 51.625 46.0936 51.625Z" stroke="#BFBCC2" stroke-width="3.6875" stroke-linecap="round" stroke-linejoin="round"/>
    <path d="M35.0312 7.375V20.2812H47.9393" stroke="#BFBCC2" stroke-width="3.6875" stroke-linecap="round" stroke-linejoin="round"/>
    <path d="M22.125 31.3438H36.875" stroke="#BFBCC2" stroke-width="3.6875" stroke-linecap="round" stroke-linejoin="round"/>
    <path d="M22.125 38.7188H36.875" stroke="#BFBCC2" stroke-width="3.6875" stroke-linecap="round" stroke-linejoin="round"/>
</svg>
